<svg width="38px" height="40px" viewBox="0 0 38 40" version="1.1" xmlns="http://www.w3.org/2000/svg" xmlns:xlink="http://www.w3.org/1999/xlink">
    <g id="Page-1" stroke="none" stroke-width="1" fill="none" fill-rule="evenodd">
        <g id="custom.blueberry" transform="translate(-541.000000, -641.000000)" fill="#43B8F7" fill-rule="nonzero" stroke="#43B8F7">
            <g id="Symbols" transform="translate(541.676248, 642.000000)">
                <g id="Ultralight-S" transform="translate(-0.000000, 0.000000)">
                    <path d="M18.2412095,0 C12.3280875,0 7.21480265,3.38779511 4.25059456,7.12970094 C0.907256099,11.3502068 -0.0388600853,16.1269922 0.00120946426,19 C0.195115848,32.9031899 12.49541,38 18.2450066,38 C21.5310664,38 26.9472919,37.0084172 30.7537291,33.9547818 C34.3585705,31.0628725 36.6721171,26.5760983 36.4812095,24.9254929 C36.1492816,22.0556135 33.9627353,22.2160638 32.2871201,20.2643665 C30.6115049,18.3126693 31.5075766,15.3544974 30.2901561,12.9498343 C29.0727357,10.5451711 26.2898042,9.03239661 24.9896189,7.12970094 C23.6894335,5.22700526 24.6509402,2.53445782 23.5481058,1.44835563 C22.4452714,0.362253432 21.6449619,0 18.2412095,0 Z" id="blueberry_logo_path"></path>
                </g>
            </g>
        </g>
    </g>
</svg>